<?xml version="1.0" encoding="utf-8"?>
<!-- Generator: Adobe Illustrator 24.0.0, SVG Export Plug-In . SVG Version: 6.00 Build 0)  -->
<svg version="1.1" id="Warstwa_3" xmlns="http://www.w3.org/2000/svg" xmlns:xlink="http://www.w3.org/1999/xlink" x="0px" y="0px"
	 viewBox="0 0 512 512" style="enable-background:new 0 0 512 512;" xml:space="preserve">
<style type="text/css">
	.st0{fill:url(#SVGID_1_);stroke:url(#SVGID_2_);stroke-miterlimit:10;}
</style>
<linearGradient id="SVGID_1_" gradientUnits="userSpaceOnUse" x1="90.887" y1="257.6483" x2="439.5428" y2="257.6483" gradientTransform="matrix(0.7071 -0.7071 0.7071 0.7071 -115.9112 261.3504)">
	<stop  offset="0" style="stop-color:#76C044"/>
	<stop  offset="0.9949" style="stop-color:#BEDDA0"/>
</linearGradient>
<linearGradient id="SVGID_2_" gradientUnits="userSpaceOnUse" x1="90.387" y1="257.6483" x2="440.0428" y2="257.6483" gradientTransform="matrix(0.7071 -0.7071 0.7071 0.7071 -115.9112 261.3504)">
	<stop  offset="0" style="stop-color:#7DC243"/>
	<stop  offset="1" style="stop-color:#BFDEA7"/>
</linearGradient>
<polygon class="st0" points="500.35,256 253.81,502.54 7.27,256 253.81,9.46 "/>
<g>
	<g>
		<path d="M119.63,237.02H98.43v-6.82h50.27v6.82h-21.17v50.08h-7.91V237.02z"/>
		<path d="M212.21,258.48c0,16.08-10.63,29.83-29.27,29.83c-17.9,0-29.1-13.16-29.1-29.86c0-15.78,11.48-29.45,29.33-29.45
			C200.92,229,212.21,242.69,212.21,258.48z M162.16,258.23c0,12.24,7.3,23.33,21.06,23.33c13.59,0,20.67-10.57,20.67-22.92
			c0-11.79-7.26-22.9-21.17-22.9C169.76,235.74,162.16,246.21,162.16,258.23z"/>
		<path d="M277.49,262.58c0-10.62,0.03-20.87,0.34-26.77h-0.08c-2.74,8.58-12.39,31.72-20.32,51.29h-6.83
			c-5.97-15.94-16.54-42.25-19.59-51.23h-0.08c0.5,6.51,0.78,18.55,0.78,28.16v23.07h-7.27v-56.9h11.27
			c7.64,18.63,17.1,41.94,18.74,47.19h0.08c2.64-7.06,12.21-29.77,19.24-47.19h11.4v56.9h-7.68V262.58z"/>
		<path d="M342.09,260.61h-33.34v19.7h36.78l-1.06,6.79h-43.58v-56.9h42.95v6.79h-35.09v16.83h33.34V260.61z"/>
		<path d="M392.91,287.1l-18.01-23.64h-0.21l-17.46,23.64h-9.02l22.06-29.19l-21.14-27.71h9.43l16.7,22.17l0.08-0.05l16.83-22.11
			h8.93l-21.49,27.54l22.71,29.37H392.91z"/>
	</g>
</g>
<g>
	<g>
		<path d="M93.39,183.28l8.8,8.9c4.06,4.1,7.8,2.65,10.38,0.09c3.12-3.08,3.66-6.3-0.18-10.18l-8.8-8.9l2.41-2.38l8.78,8.88
			c5.04,5.1,4.15,9.98-0.45,14.52c-4.57,4.52-9.56,5.37-14.39,0.49l-8.95-9.05L93.39,183.28z"/>
		<path d="M122.69,176.28c2.43,1.22,5.16,1.07,8.52-2.25c3.35-3.31,3.45-5.77,2.01-7.23c-1.52-1.54-3.4-1.56-8.46,2.1
			c-5.91,4.26-8.6,4-10.7,1.86c-2.72-2.76-1.44-7.14,2.27-10.8c5.54-5.47,9.48-4.1,11.23-2.7l-2.44,2.41
			c-1.4-0.72-3.52-1.42-7.11,2.13c-2.45,2.42-3.27,4.75-1.71,6.32c1.27,1.28,2.76,1.4,7.22-1.82c7.09-5.11,9.82-4.34,11.96-2.17
			c2.47,2.49,2.42,6.77-2.71,11.83c-4.76,4.7-9.13,5.08-12.54,2.75L122.69,176.28z"/>
		<path d="M127.99,149.07l2.39-2.36L144,160.49l10.27-10.15l1.5,2.25l-12.29,12.15L127.99,149.07z M135.51,161.85l-1.64-1.63
			l5.54-14.29l1.67,1.69L135.51,161.85z"/>
		<path d="M145.65,131.61l8.8,8.9c4.06,4.1,7.8,2.65,10.38,0.09c3.12-3.08,3.66-6.3-0.18-10.18l-8.8-8.9l2.41-2.38l8.78,8.88
			c5.04,5.1,4.15,9.98-0.45,14.52c-4.57,4.52-9.56,5.37-14.39,0.49l-8.95-9.05L145.65,131.61z"/>
		<path d="M194.22,114.58l-1.84,1.82c-0.47-0.31-1.79-1.44-2.48-2.13c0.53,2.81-0.25,5.48-3.58,8.78
			c-5.37,5.31-11.88,5.31-16.68,0.44c-4.56-4.61-4.71-11.58,0.96-17.18c5.1-5.04,9.63-4.8,12.55-3.12l-2.48,2.45
			c-2.1-0.82-4.98-0.77-8.29,2.51c-4.26,4.21-3.79,9.2-0.32,12.7c3.65,3.69,8.61,4.16,12.79,0.03c3.55-3.51,3.93-7.16,0.88-10.25
			l-0.46-0.47l-5.52,5.46l-1.84-1.86l7.85-7.76L194.22,114.58z"/>
		<path d="M185.49,92.24l15.49,15.67l-2.41,2.38l-15.49-15.67L185.49,92.24z"/>
	</g>
</g>
<g>
	<g>
		<path d="M296.01,62.53l7.33,7.33c3.26,3.26,3.46,6.47,1.01,8.92c-1.97,1.97-4.28,1.71-5.82,0.89c0.99,1.76,1.69,4.49-0.73,6.92
			c-3.15,3.15-7.12,2.1-10.07-0.85l-7.46-7.46L296.01,62.53z M284.2,78.6l4.84,4.84c1.79,1.79,4.23,3.11,6.47,0.87
			c1.89-1.89,1.4-4.29-1.03-6.72l-4.64-4.64L284.2,78.6z M296.31,75.82c2.19,2.19,4.06,2.44,5.59,0.92
			c1.81-1.81,0.95-3.76-0.82-5.52l-4.75-4.74l-4.69,4.69L296.31,75.82z"/>
		<path d="M314.08,80.6l-8.95,8.95c-4.13,4.13-2.92,7.61-0.61,9.92c2.79,2.79,5.83,3.11,9.73-0.79l8.95-8.95l2.15,2.15l-8.92,8.92
			c-5.12,5.12-9.74,4.57-13.85,0.46c-4.09-4.09-4.65-8.8,0.25-13.71l9.1-9.1L314.08,80.6z"/>
		<path d="M329.5,96.02l6.26,6.26c4.92,4.92,4.47,11.1,0.17,15.4c-5.05,5.05-11.56,4.69-15.95,0.3l-6.22-6.22L329.5,96.02z
			 M317.75,112.08l3.63,3.63c4.03,4.03,8.59,3.36,12.19-0.24c3.64-3.64,3.56-8.11,0.04-11.65l-3.8-3.8L317.75,112.08z"/>
		<path d="M354.09,136.26c-4.45,4.45-11.16,5.34-16.27,0.24c-4.9-4.9-4.33-11.61,0.29-16.23c4.37-4.37,11.29-5.01,16.18-0.12
			C359.16,125.01,358.46,131.89,354.09,136.26z M340.45,122.49c-3.39,3.39-4.46,8.45-0.69,12.22c3.72,3.72,8.59,2.74,12-0.68
			c3.26-3.26,4.35-8.32,0.54-12.13C348.76,118.35,343.78,119.16,340.45,122.49z"/>
		<path d="M352.56,150.57l11.02-20.47l2.27,2.27c-2.75,5-8.08,14.93-9.85,17.35l0.02,0.02c2.64-1.82,12.6-6.97,17.62-9.58l2.16,2.16
			c-2.45,4.61-8.23,15.4-9.63,17.46l0.03,0.03c2.85-1.87,12.71-7.01,17.54-9.55l2.17,2.17l-20.8,10.69l-2.36-2.36
			c2.49-4.67,7.99-15.02,9.47-17.27l-0.02-0.02c-2.39,1.63-12.06,6.64-17.34,9.39L352.56,150.57z"/>
		<path d="M388.48,155l2.14,2.14l-13.85,13.85l9.18,9.18l-2.22,1.57l-10.99-10.99L388.48,155z"/>
		<path d="M393.59,182.06l-6.74,2.81l-2.24-2.24l22.29-9.2l2.61,2.61l-8.94,22.55l-2.34-2.34l2.72-6.82L393.59,182.06z
			 M402.15,186.83c2.49-6.21,3.67-9.14,4.39-10.56l-0.02-0.02c-1.34,0.72-5.08,2.37-10.36,4.59L402.15,186.83z"/>
		<path d="M402.97,200.98l15.75-15.75l2.57,2.58c-1.51,8.36-3.08,19.72-3.84,22.2l0.04,0.04c1.91-2.18,4.42-4.65,6.98-7.2l5.93-5.93
			l2.01,2.01l-15.75,15.75l-2.43-2.43c0.88-5.41,3.4-19.86,4.14-22.79l-0.04-0.04c-1.91,2.14-4.14,4.37-6.93,7.16l-6.42,6.42
			L402.97,200.98z"/>
		<path d="M439.58,222.93l-9.13-9.13l-5.45,5.45l10.07,10.07l-2.17,1.59l-11.93-11.93l15.75-15.75l11.76,11.76l-1.88,1.88
			l-9.61-9.61l-4.66,4.66l9.13,9.13L439.58,222.93z"/>
	</g>
</g>
<g>
	<g>
		<path d="M47.99,276.05l7.89-19.98l2.91,2.91c-1.99,4.87-5.8,14.56-7.24,16.84l0.03,0.03c2.5-1.45,12.27-5.06,17.19-6.89l2.76,2.76
			c-1.74,4.51-5.87,15.05-6.98,17l0.04,0.04c2.71-1.47,12.37-5.08,17.1-6.87l2.78,2.78l-20.4,7.47l-3.02-3.01
			c1.77-4.56,5.69-14.68,6.84-16.82l-0.03-0.03c-2.27,1.29-11.75,4.81-16.91,6.75L47.99,276.05z"/>
		<path d="M78.86,306.92l5.3-5.3c0.14-0.14,0.16-0.29,0.16-0.54l0.13-16.44l3.28,3.28c-0.11,4.66-0.1,11.4-0.36,13.46
			c2.14-0.2,8.75-0.3,13.43-0.39l3.06,3.06l-16.5,0.16c-0.2,0.01-0.3,0.04-0.46,0.2l-5.27,5.27L78.86,306.92z"/>
		<path d="M106.08,306.26l2.75,2.75l-6.86,6.87c4.8,1.17,12.37,3.14,18.31,4.58l3.57,3.57l-15.88-3.94l2.53,18.46l-3.59-3.59
			l-2.08-15.88l-4.77-1.31l-5.17,5.17l-2.75-2.75L106.08,306.26z"/>
		<path d="M138.75,352.79c-3.94,3.94-11.03,3.58-17.56-2.95c-6.27-6.27-6.97-13.42-2.88-17.51c3.87-3.87,11.24-3.19,17.49,3.06
			C142.02,341.62,142.62,348.93,138.75,352.79z M121.28,335.2c-3,3-3.16,8.27,1.67,13.09c4.76,4.76,9.83,4.66,12.86,1.63
			c2.89-2.89,3.06-8.15-1.81-13.02C129.45,332.35,124.22,332.25,121.28,335.2z"/>
		<path d="M135.36,363.42l13.22-13.22l2.6,2.61l-0.77,12.61c-0.18,2.92-0.5,5.38-0.98,7.61l0.08,0.04c1.55-1.98,3.1-3.65,5.16-5.71
			l5.53-5.53l2.25,2.25l-13.22,13.22l-2.41-2.41l0.84-12.58c0.18-2.76,0.46-5.5,0.96-7.87l-0.1-0.06c-1.53,1.8-3.06,3.45-5.26,5.65
			l-5.65,5.65L135.36,363.42z M162.58,358.2l-5.8-1.21l-1.95-1.95l4.82,0.23L162.58,358.2z"/>
		<path d="M166.75,393.94c-1.19-0.56-3.26-2-5.51-4.25c-5.21-5.21-6.77-11.48-2.44-15.82c4.14-4.14,10.86-3.02,16.59,2.71
			c2.3,2.3,3.4,4.11,3.8,4.98l-1.97,0.82c-0.59-1.22-1.65-2.74-3.18-4.28c-4.33-4.33-9.19-5.23-12.66-1.76
			c-3.24,3.24-2.71,7.92,1.78,12.42c1.45,1.45,3.15,2.72,4.44,3.34L166.75,393.94z"/>
		<path d="M169.04,395.1l20.98-0.48l0.06-0.06l-9.38-9.38l1.43-1.43l12.47,12.47l-1.04,1.04l-20.89,0.49l-0.06,0.06l10.34,10.34
			l-1.43,1.43l-13.49-13.49L169.04,395.1z"/>
		<path d="M200.23,415.89l-7.18-7.18l-4.77,4.77l8.01,8.01l-1.43,1.43l-10.39-10.39l13.22-13.22l9.98,9.98l-1.43,1.43l-7.59-7.59
			l-4.18,4.18l7.18,7.18L200.23,415.89z"/>
		<path d="M197.95,426.01l13.22-13.22l2.6,2.6L213,428c-0.18,2.92-0.5,5.38-0.98,7.61l0.08,0.04c1.55-1.98,3.1-3.65,5.16-5.71
			l5.53-5.53l2.25,2.25l-13.22,13.22l-2.41-2.41l0.84-12.58c0.18-2.76,0.46-5.5,0.96-7.87l-0.1-0.06c-1.53,1.81-3.06,3.45-5.26,5.65
			l-5.65,5.65L197.95,426.01z"/>
		<path d="M231.59,433.21l-13.22,13.22l-2.39-2.39l13.22-13.22L231.59,433.21z"/>
		<path d="M229.68,449.43l-6.08,2.24l-2.47-2.47l19.5-6.94l2.88,2.88l-6.92,19.53l-2.55-2.55l2.18-6.13L229.68,449.43z
			 M237.08,454.15l2-5.62c0.45-1.27,0.96-2.33,1.45-3.37l-0.05-0.05c-1.06,0.51-2.16,1.01-3.33,1.46l-5.63,2.02L237.08,454.15z"/>
	</g>
</g>
<g>
	<g>
		<path d="M321.62,421.74l-22.1-10.27l2.84-2.84c5.4,2.57,16.11,7.54,18.68,9.28l0.03-0.03c-1.78-2.81-6.53-13.58-8.95-19.01
			l2.7-2.7c4.99,2.28,16.63,7.65,18.82,9.02l0.04-0.04c-1.82-3.04-6.57-13.7-8.92-18.93l2.72-2.72l9.86,22.51l-2.95,2.95
			c-5.04-2.32-16.23-7.42-18.62-8.86l-0.03,0.03c1.58,2.55,6.22,13,8.76,18.71L321.62,421.74z"/>
		<path d="M346.87,396.49l-16.18-16.18l3.22-3.22c9.36,0.78,22.13,1.3,24.87,1.89l0.05-0.05c-2.27-1.94-4.8-4.52-7.43-7.15
			l-6.09-6.09l2.52-2.52l16.18,16.18l-3.05,3.05c-6.06-0.4-22.26-1.65-25.51-2.17l-0.05,0.05c2.22,1.94,4.52,4.23,7.38,7.1l6.6,6.6
			L346.87,396.49z"/>
		<path d="M383.26,368.52c-0.3,0.94-0.86,1.82-1.67,2.62c-1.53,1.53-3.13,1.81-4.31,0.62c-1.23-1.23-1.12-3.48-0.7-4.99l-7.83,7.83
			l-15.35-15.35l9.76-9.76l1.66,1.66l-7.43,7.43l4.85,4.85l7.03-7.03l1.64,1.64l-7.03,7.03l5.54,5.54l7.83-7.83l1.66,1.66l-0.4,0.4
			c-0.51,1.74-0.65,3.8,0.19,4.64c0.59,0.59,1.42,0.4,2.15-0.32c0.4-0.4,0.73-0.82,1-1.36L383.26,368.52z"/>
		<path d="M371.71,344.31l-5.5,5.5l-1.68-1.68l13.38-13.38l1.68,1.68l-5.53,5.53l13.67,13.67l-2.36,2.36L371.71,344.31z"/>
		<path d="M380.13,332.93c0.98-1.38,2.55-3.19,4.16-4.8c2.49-2.49,4.49-3.72,6.48-3.98c1.59-0.23,3.15,0.31,4.34,1.49
			c2.03,2.03,1.87,4.87,0.51,7.32l0.07,0.07c1.81-0.98,3.73-0.72,5.75,0.44c2.73,1.55,4.64,2.6,5.61,2.82l-2.41,2.41
			c-0.73-0.14-2.45-1.06-4.87-2.46c-2.66-1.58-4.42-1.41-6.61,0.64l-2.2,2.2l6.65,6.65l-2.33,2.33L380.13,332.93z M389.45,337.59
			l2.39-2.39c2.5-2.5,2.92-5.24,1.16-6.99c-1.98-1.98-4.54-1.16-7.03,1.29c-1.13,1.13-1.84,2.02-2.13,2.49L389.45,337.59z"/>
		<path d="M407.31,333.72l-2.43-22.49l-0.07-0.07l-9.17,9.17l-1.66-1.66l12.21-12.21l1.21,1.21l2.43,22.39l0.07,0.07L420,320.03
			l1.66,1.66l-13.2,13.2L407.31,333.72z"/>
	</g>
</g>
</svg>
